<svg width="47" height="39" viewBox="0 0 47 39" fill="none" xmlns="http://www.w3.org/2000/svg">
  <path d="M31.5 27.5L23.5 19.5L15.5 27.5"  stroke-opacity="0.4" stroke-width="2"
    stroke-linecap="round" stroke-linejoin="round" />
  <path d="M23.5 19.5V37.5"  stroke-opacity="0.4" stroke-width="2"
    stroke-linecap="round" stroke-linejoin="round" />
  <path
    d="M40.28 32.28C42.2307 31.2165 43.7717 29.5337 44.6597 27.4972C45.5478 25.4607 45.7324 23.1864 45.1844 21.0334C44.6364 18.8803 43.387 16.971 41.6333 15.6069C39.8797 14.2427 37.7217 13.5014 35.5 13.5H32.98C32.3746 11.1585 31.2463 8.98464 29.6799 7.14195C28.1135 5.29927 26.1497 3.83567 23.9362 2.86118C21.7227 1.8867 19.3171 1.42669 16.9002 1.51573C14.4834 1.60478 12.1181 2.24057 9.98235 3.3753C7.84657 4.51003 5.99582 6.11417 4.56924 8.06713C3.14266 10.0201 2.17738 12.271 1.74596 14.6508C1.31454 17.0305 1.42821 19.477 2.07842 21.8065C2.72864 24.136 3.89848 26.2877 5.5 28.1"
     stroke-opacity="0.4" stroke-width="2" stroke-linecap="round"
    stroke-linejoin="round" />
  <path d="M31.5 27.5L23.5 19.5L15.5 27.5"  stroke-opacity="0.4" stroke-width="2"
    stroke-linecap="round" stroke-linejoin="round" />
</svg>