<svg width="20" height="20" viewBox="0 0 20 20" fill="none" xmlns="http://www.w3.org/2000/svg">
<path d="M18.3334 4.75833V12.7417C18.3334 15.0417 16.4668 16.9083 14.1668 16.9083H5.83343C5.4501 16.9083 5.08343 16.8583 4.7251 16.7583C4.20843 16.6167 4.04177 15.9583 4.4251 15.575L13.2834 6.71667C13.4668 6.53333 13.7418 6.49167 14.0001 6.54167C14.2668 6.59167 14.5584 6.51667 14.7668 6.31667L16.9084 4.16667C17.6918 3.38333 18.3334 3.64167 18.3334 4.75833Z" fill="#FFE500"/>
<path d="M12.1998 6.13333L3.47484 14.8583C3.07484 15.2583 2.40817 15.1583 2.1415 14.6583C1.83317 14.0917 1.6665 13.4333 1.6665 12.7417V4.75833C1.6665 3.64167 2.30817 3.38333 3.0915 4.16667L5.2415 6.325C5.5665 6.64167 6.09984 6.64167 6.42484 6.325L9.40817 3.33333C9.73317 3.00833 10.2665 3.00833 10.5915 3.33333L12.2082 4.95C12.5248 5.275 12.5248 5.80833 12.1998 6.13333Z" fill="#FFE500"/>
</svg>
