<svg clip-rule="evenodd" fill-rule="evenodd" height="1.707in" image-rendering="optimizeQuality"
  shape-rendering="geometricPrecision" text-rendering="geometricPrecision" viewBox="0 0 1707 1707"
  width="1.707in" xmlns="http://www.w3.org/2000/svg">
  <g id="Layer_x0020_1">
    <path
      d="m853 1664c-5 0-10-2-14-6-122-116-275-118-277-118h-542c-11 0-20-9-20-20v-1044c0-11 9-20 20-20h558c77 5 151 28 213 66 22 14 1 48-21 34-58-35-123-56-193-60h-537v1004h522c8 0 160 2 291 117 131-115 284-117 292-117h521v-1004h-537c-70 4-135 24-192 60-23 14-44-20-21-34 62-39 135-62 212-66h559c11 0 20 9 20 20v1044c0 11-9 20-20 20h-542c-2 0-155 2-278 118-4 4-9 6-14 6z" />
    <path d="m853 1664c-11 0-20-9-20-20v-883c0-27 40-27 40 0v883c0 11-9 20-20 20z" />
    <path
      d="m1015 1359c-21 0-28-30-8-39 8-4 215-93 507-29 26 6 17 45-8 40-279-62-481 25-483 26-3 1-5 2-8 2z" />
    <path
      d="m1015 1158c-21 0-28-30-8-39 8-4 215-93 507-28 26 5 17 44-8 39-279-62-481 25-483 26-3 1-5 2-8 2z" />
    <path
      d="m1015 957c-21 0-28-30-8-39 8-4 215-93 507-28 26 5 17 44-8 39-279-62-481 25-483 26-3 1-5 2-8 2z" />
    <path
      d="m1015 756c-21 0-28-30-8-39 8-4 215-93 507-29 26 6 17 45-8 39-279-61-481 26-483 27-3 1-5 2-8 2z" />
    <path
      d="m692 1359c-3 0-6-1-8-2-3-1-205-88-483-26-26 5-35-34-9-39 292-65 499 24 508 28 19 9 13 39-8 39z" />
    <path
      d="m692 1158c-3 0-6-1-8-2-3-1-205-88-483-26-26 5-35-34-9-39 292-65 499 25 508 28 19 9 13 39-8 39z" />
    <path
      d="m692 957c-3 0-6-1-8-2-3-1-205-88-483-26-26 5-35-34-9-39 292-65 499 24 508 28 19 9 13 39-8 39z" />
    <path
      d="m692 756c-3 0-6-1-8-2-3-1-205-88-483-26-26 5-35-34-9-39 292-65 499 24 508 28 19 9 13 39-8 39z" />
    <path
      d="m1266 496c-11 0-20-9-20-20 0-217-176-393-393-393s-393 176-393 393c0 26-40 26-40 0 0-239 195-433 433-433 239 0 433 194 433 433 0 11-9 20-20 20z" />
    <path
      d="m1002 522c-25 0-20-29-20-46 0-231-68-393-129-393-70 0-133 193-129 419 1 26-39 28-40 1-4-207 51-460 169-460 119 0 172 251 169 460 0 11-9 19-20 19z" />
    <path
      d="m1266 496c-11 0-20-9-20-20 0-61-161-129-393-129-231 0-393 68-393 129 0 26-40 26-40 0 0-110 223-169 433-169s433 59 433 169c0 11-9 20-20 20z" />
    <path
      d="m911 781h-115c-11 0-20-9-20-20v-142c-34 0-66 7-74-12-3-8-1-16 4-22l133-133c8-7 21-7 29 0l132 133c13 13 4 34-14 34h-55v142c0 11-9 20-20 20zm-95-40h75c0-172-14-162 47-162l-85-84-84 84c18 0 47-4 47 20z" />
  </g>
</svg>